<mxfile host="app.diagrams.net" modified="2023-06-19T11:28:05.954Z" agent="Mozilla/5.0 (Windows NT 10.0; Win64; x64; rv:109.0) Gecko/20100101 Firefox/114.0" etag="VNDS_60UfHuTgMLdvmTN" version="21.5.0" type="github">
  <diagram name="Page-1" id="PV5uFxPVFKpkW1Fv-T3a">
    <mxGraphModel dx="1286" dy="982" grid="1" gridSize="10" guides="1" tooltips="1" connect="1" arrows="1" fold="1" page="1" pageScale="1" pageWidth="850" pageHeight="1100" math="0" shadow="0">
      <root>
        <mxCell id="0" />
        <mxCell id="1" parent="0" />
        <mxCell id="wBqZYNnKL2V66_kFx7pn-3" value="1" style="ellipse;whiteSpace=wrap;html=1;aspect=fixed;" parent="1" vertex="1">
          <mxGeometry x="30" y="210" width="30" height="30" as="geometry" />
        </mxCell>
        <mxCell id="wBqZYNnKL2V66_kFx7pn-5" value="2" style="ellipse;whiteSpace=wrap;html=1;aspect=fixed;" parent="1" vertex="1">
          <mxGeometry x="50" y="240" width="30" height="30" as="geometry" />
        </mxCell>
        <mxCell id="wBqZYNnKL2V66_kFx7pn-6" value="3" style="ellipse;whiteSpace=wrap;html=1;aspect=fixed;" parent="1" vertex="1">
          <mxGeometry x="70" y="270" width="30" height="30" as="geometry" />
        </mxCell>
        <mxCell id="wBqZYNnKL2V66_kFx7pn-7" value="4" style="ellipse;whiteSpace=wrap;html=1;aspect=fixed;" parent="1" vertex="1">
          <mxGeometry x="90" y="240" width="30" height="30" as="geometry" />
        </mxCell>
        <mxCell id="wBqZYNnKL2V66_kFx7pn-8" value="5" style="ellipse;whiteSpace=wrap;html=1;aspect=fixed;" parent="1" vertex="1">
          <mxGeometry x="110" y="210" width="30" height="30" as="geometry" />
        </mxCell>
        <mxCell id="wBqZYNnKL2V66_kFx7pn-18" value="6" style="ellipse;whiteSpace=wrap;html=1;aspect=fixed;" parent="1" vertex="1">
          <mxGeometry x="130" y="240" width="30" height="30" as="geometry" />
        </mxCell>
        <mxCell id="wBqZYNnKL2V66_kFx7pn-19" value="7" style="ellipse;whiteSpace=wrap;html=1;aspect=fixed;" parent="1" vertex="1">
          <mxGeometry x="150" y="270" width="30" height="30" as="geometry" />
        </mxCell>
        <mxCell id="wBqZYNnKL2V66_kFx7pn-20" value="8" style="ellipse;whiteSpace=wrap;html=1;aspect=fixed;" parent="1" vertex="1">
          <mxGeometry x="170" y="240" width="30" height="30" as="geometry" />
        </mxCell>
        <mxCell id="wBqZYNnKL2V66_kFx7pn-21" value="9" style="ellipse;whiteSpace=wrap;html=1;aspect=fixed;" parent="1" vertex="1">
          <mxGeometry x="190" y="210" width="30" height="30" as="geometry" />
        </mxCell>
        <mxCell id="wBqZYNnKL2V66_kFx7pn-22" value="10" style="ellipse;whiteSpace=wrap;html=1;aspect=fixed;" parent="1" vertex="1">
          <mxGeometry x="210" y="240" width="30" height="30" as="geometry" />
        </mxCell>
        <mxCell id="wBqZYNnKL2V66_kFx7pn-23" value="11" style="ellipse;whiteSpace=wrap;html=1;aspect=fixed;" parent="1" vertex="1">
          <mxGeometry x="230" y="270" width="30" height="30" as="geometry" />
        </mxCell>
        <mxCell id="wBqZYNnKL2V66_kFx7pn-24" value="12" style="ellipse;whiteSpace=wrap;html=1;aspect=fixed;" parent="1" vertex="1">
          <mxGeometry x="250" y="240" width="30" height="30" as="geometry" />
        </mxCell>
        <mxCell id="wBqZYNnKL2V66_kFx7pn-25" value="13" style="ellipse;whiteSpace=wrap;html=1;aspect=fixed;" parent="1" vertex="1">
          <mxGeometry x="270" y="210" width="30" height="30" as="geometry" />
        </mxCell>
        <mxCell id="wBqZYNnKL2V66_kFx7pn-26" value="14" style="ellipse;whiteSpace=wrap;html=1;aspect=fixed;" parent="1" vertex="1">
          <mxGeometry x="290" y="240" width="30" height="30" as="geometry" />
        </mxCell>
        <mxCell id="wBqZYNnKL2V66_kFx7pn-27" value="15" style="ellipse;whiteSpace=wrap;html=1;aspect=fixed;" parent="1" vertex="1">
          <mxGeometry x="310" y="270" width="30" height="30" as="geometry" />
        </mxCell>
        <mxCell id="wBqZYNnKL2V66_kFx7pn-28" value="16" style="ellipse;whiteSpace=wrap;html=1;aspect=fixed;" parent="1" vertex="1">
          <mxGeometry x="330" y="240" width="30" height="30" as="geometry" />
        </mxCell>
        <mxCell id="wBqZYNnKL2V66_kFx7pn-29" value="17" style="ellipse;whiteSpace=wrap;html=1;aspect=fixed;" parent="1" vertex="1">
          <mxGeometry x="350" y="210" width="30" height="30" as="geometry" />
        </mxCell>
        <mxCell id="wBqZYNnKL2V66_kFx7pn-30" value="18" style="ellipse;whiteSpace=wrap;html=1;aspect=fixed;" parent="1" vertex="1">
          <mxGeometry x="370" y="240" width="30" height="30" as="geometry" />
        </mxCell>
        <mxCell id="wBqZYNnKL2V66_kFx7pn-31" value="19" style="ellipse;whiteSpace=wrap;html=1;aspect=fixed;" parent="1" vertex="1">
          <mxGeometry x="390" y="270" width="30" height="30" as="geometry" />
        </mxCell>
        <mxCell id="wBqZYNnKL2V66_kFx7pn-32" value="20" style="ellipse;whiteSpace=wrap;html=1;aspect=fixed;" parent="1" vertex="1">
          <mxGeometry x="410" y="240" width="30" height="30" as="geometry" />
        </mxCell>
        <mxCell id="wBqZYNnKL2V66_kFx7pn-33" value="21" style="ellipse;whiteSpace=wrap;html=1;aspect=fixed;" parent="1" vertex="1">
          <mxGeometry x="430" y="210" width="30" height="30" as="geometry" />
        </mxCell>
        <mxCell id="wBqZYNnKL2V66_kFx7pn-34" value="22" style="ellipse;whiteSpace=wrap;html=1;aspect=fixed;" parent="1" vertex="1">
          <mxGeometry x="450" y="240" width="30" height="30" as="geometry" />
        </mxCell>
        <mxCell id="wBqZYNnKL2V66_kFx7pn-35" value="23" style="ellipse;whiteSpace=wrap;html=1;aspect=fixed;" parent="1" vertex="1">
          <mxGeometry x="470" y="270" width="30" height="30" as="geometry" />
        </mxCell>
        <mxCell id="wBqZYNnKL2V66_kFx7pn-36" value="24" style="ellipse;whiteSpace=wrap;html=1;aspect=fixed;" parent="1" vertex="1">
          <mxGeometry x="490" y="240" width="30" height="30" as="geometry" />
        </mxCell>
        <mxCell id="wBqZYNnKL2V66_kFx7pn-37" value="25" style="ellipse;whiteSpace=wrap;html=1;aspect=fixed;" parent="1" vertex="1">
          <mxGeometry x="510" y="210" width="30" height="30" as="geometry" />
        </mxCell>
        <mxCell id="wBqZYNnKL2V66_kFx7pn-42" value="26" style="ellipse;whiteSpace=wrap;html=1;aspect=fixed;" parent="1" vertex="1">
          <mxGeometry x="530" y="240" width="30" height="30" as="geometry" />
        </mxCell>
        <mxCell id="wBqZYNnKL2V66_kFx7pn-43" value="27" style="ellipse;whiteSpace=wrap;html=1;aspect=fixed;gradientColor=none;opacity=10;textOpacity=10;" parent="1" vertex="1">
          <mxGeometry x="550" y="270" width="30" height="30" as="geometry" />
        </mxCell>
        <mxCell id="wBqZYNnKL2V66_kFx7pn-44" value="28" style="ellipse;whiteSpace=wrap;html=1;aspect=fixed;gradientColor=none;opacity=10;textOpacity=10;" parent="1" vertex="1">
          <mxGeometry x="570" y="240" width="30" height="30" as="geometry" />
        </mxCell>
        <mxCell id="wBqZYNnKL2V66_kFx7pn-45" value="29" style="ellipse;whiteSpace=wrap;html=1;aspect=fixed;gradientColor=none;opacity=10;textOpacity=10;" parent="1" vertex="1">
          <mxGeometry x="590" y="210" width="30" height="30" as="geometry" />
        </mxCell>
        <mxCell id="wBqZYNnKL2V66_kFx7pn-46" value="&lt;div&gt;7&lt;br&gt;13&lt;/div&gt;&lt;div&gt;6&lt;br&gt;&lt;/div&gt;" style="rounded=0;whiteSpace=wrap;html=1;" parent="1" vertex="1">
          <mxGeometry x="535" y="354" width="20" height="50" as="geometry" />
        </mxCell>
        <mxCell id="wBqZYNnKL2V66_kFx7pn-47" value="26" style="rounded=0;whiteSpace=wrap;html=1;fillColor=none;" parent="1" vertex="1">
          <mxGeometry x="535" y="334" width="20" height="20" as="geometry" />
        </mxCell>
        <mxCell id="wBqZYNnKL2V66_kFx7pn-48" value="A" style="ellipse;whiteSpace=wrap;html=1;aspect=fixed;" parent="1" vertex="1">
          <mxGeometry x="30" y="100" width="30" height="30" as="geometry" />
        </mxCell>
        <mxCell id="wBqZYNnKL2V66_kFx7pn-49" value="B" style="ellipse;whiteSpace=wrap;html=1;aspect=fixed;" parent="1" vertex="1">
          <mxGeometry x="50" y="130" width="30" height="30" as="geometry" />
        </mxCell>
        <mxCell id="wBqZYNnKL2V66_kFx7pn-50" value="C" style="ellipse;whiteSpace=wrap;html=1;aspect=fixed;" parent="1" vertex="1">
          <mxGeometry x="70" y="160" width="30" height="30" as="geometry" />
        </mxCell>
        <mxCell id="wBqZYNnKL2V66_kFx7pn-51" value="D" style="ellipse;whiteSpace=wrap;html=1;aspect=fixed;" parent="1" vertex="1">
          <mxGeometry x="90" y="130" width="30" height="30" as="geometry" />
        </mxCell>
        <mxCell id="wBqZYNnKL2V66_kFx7pn-52" value="E" style="ellipse;whiteSpace=wrap;html=1;aspect=fixed;" parent="1" vertex="1">
          <mxGeometry x="110" y="100" width="30" height="30" as="geometry" />
        </mxCell>
        <mxCell id="wBqZYNnKL2V66_kFx7pn-53" value="F" style="ellipse;whiteSpace=wrap;html=1;aspect=fixed;" parent="1" vertex="1">
          <mxGeometry x="130" y="130" width="30" height="30" as="geometry" />
        </mxCell>
        <mxCell id="wBqZYNnKL2V66_kFx7pn-54" value="G" style="ellipse;whiteSpace=wrap;html=1;aspect=fixed;" parent="1" vertex="1">
          <mxGeometry x="150" y="160" width="30" height="30" as="geometry" />
        </mxCell>
        <mxCell id="wBqZYNnKL2V66_kFx7pn-55" value="H" style="ellipse;whiteSpace=wrap;html=1;aspect=fixed;" parent="1" vertex="1">
          <mxGeometry x="170" y="130" width="30" height="30" as="geometry" />
        </mxCell>
        <mxCell id="wBqZYNnKL2V66_kFx7pn-56" value="I" style="ellipse;whiteSpace=wrap;html=1;aspect=fixed;" parent="1" vertex="1">
          <mxGeometry x="190" y="100" width="30" height="30" as="geometry" />
        </mxCell>
        <mxCell id="wBqZYNnKL2V66_kFx7pn-57" value="J" style="ellipse;whiteSpace=wrap;html=1;aspect=fixed;" parent="1" vertex="1">
          <mxGeometry x="210" y="130" width="30" height="30" as="geometry" />
        </mxCell>
        <mxCell id="wBqZYNnKL2V66_kFx7pn-58" value="K" style="ellipse;whiteSpace=wrap;html=1;aspect=fixed;" parent="1" vertex="1">
          <mxGeometry x="230" y="160" width="30" height="30" as="geometry" />
        </mxCell>
        <mxCell id="wBqZYNnKL2V66_kFx7pn-59" value="L" style="ellipse;whiteSpace=wrap;html=1;aspect=fixed;" parent="1" vertex="1">
          <mxGeometry x="250" y="130" width="30" height="30" as="geometry" />
        </mxCell>
        <mxCell id="wBqZYNnKL2V66_kFx7pn-60" value="M" style="ellipse;whiteSpace=wrap;html=1;aspect=fixed;" parent="1" vertex="1">
          <mxGeometry x="270" y="100" width="30" height="30" as="geometry" />
        </mxCell>
        <mxCell id="wBqZYNnKL2V66_kFx7pn-61" value="N" style="ellipse;whiteSpace=wrap;html=1;aspect=fixed;" parent="1" vertex="1">
          <mxGeometry x="290" y="130" width="30" height="30" as="geometry" />
        </mxCell>
        <mxCell id="wBqZYNnKL2V66_kFx7pn-62" value="O" style="ellipse;whiteSpace=wrap;html=1;aspect=fixed;" parent="1" vertex="1">
          <mxGeometry x="310" y="160" width="30" height="30" as="geometry" />
        </mxCell>
        <mxCell id="wBqZYNnKL2V66_kFx7pn-63" value="P" style="ellipse;whiteSpace=wrap;html=1;aspect=fixed;" parent="1" vertex="1">
          <mxGeometry x="330" y="130" width="30" height="30" as="geometry" />
        </mxCell>
        <mxCell id="wBqZYNnKL2V66_kFx7pn-64" value="Q" style="ellipse;whiteSpace=wrap;html=1;aspect=fixed;" parent="1" vertex="1">
          <mxGeometry x="350" y="100" width="30" height="30" as="geometry" />
        </mxCell>
        <mxCell id="wBqZYNnKL2V66_kFx7pn-65" value="R" style="ellipse;whiteSpace=wrap;html=1;aspect=fixed;" parent="1" vertex="1">
          <mxGeometry x="370" y="130" width="30" height="30" as="geometry" />
        </mxCell>
        <mxCell id="wBqZYNnKL2V66_kFx7pn-66" value="S" style="ellipse;whiteSpace=wrap;html=1;aspect=fixed;" parent="1" vertex="1">
          <mxGeometry x="390" y="160" width="30" height="30" as="geometry" />
        </mxCell>
        <mxCell id="wBqZYNnKL2V66_kFx7pn-67" value="T" style="ellipse;whiteSpace=wrap;html=1;aspect=fixed;" parent="1" vertex="1">
          <mxGeometry x="410" y="130" width="30" height="30" as="geometry" />
        </mxCell>
        <mxCell id="wBqZYNnKL2V66_kFx7pn-68" value="U" style="ellipse;whiteSpace=wrap;html=1;aspect=fixed;" parent="1" vertex="1">
          <mxGeometry x="430" y="100" width="30" height="30" as="geometry" />
        </mxCell>
        <mxCell id="wBqZYNnKL2V66_kFx7pn-69" value="V" style="ellipse;whiteSpace=wrap;html=1;aspect=fixed;" parent="1" vertex="1">
          <mxGeometry x="450" y="130" width="30" height="30" as="geometry" />
        </mxCell>
        <mxCell id="wBqZYNnKL2V66_kFx7pn-70" value="W" style="ellipse;whiteSpace=wrap;html=1;aspect=fixed;" parent="1" vertex="1">
          <mxGeometry x="470" y="160" width="30" height="30" as="geometry" />
        </mxCell>
        <mxCell id="wBqZYNnKL2V66_kFx7pn-71" value="X" style="ellipse;whiteSpace=wrap;html=1;aspect=fixed;" parent="1" vertex="1">
          <mxGeometry x="490" y="130" width="30" height="30" as="geometry" />
        </mxCell>
        <mxCell id="wBqZYNnKL2V66_kFx7pn-72" value="Y" style="ellipse;whiteSpace=wrap;html=1;aspect=fixed;" parent="1" vertex="1">
          <mxGeometry x="510" y="100" width="30" height="30" as="geometry" />
        </mxCell>
        <mxCell id="wBqZYNnKL2V66_kFx7pn-73" value="Z" style="ellipse;whiteSpace=wrap;html=1;aspect=fixed;" parent="1" vertex="1">
          <mxGeometry x="530" y="130" width="30" height="30" as="geometry" />
        </mxCell>
        <mxCell id="wBqZYNnKL2V66_kFx7pn-74" value="27" style="ellipse;whiteSpace=wrap;html=1;aspect=fixed;gradientColor=none;opacity=10;textOpacity=10;" parent="1" vertex="1">
          <mxGeometry x="550" y="160" width="30" height="30" as="geometry" />
        </mxCell>
        <mxCell id="wBqZYNnKL2V66_kFx7pn-75" value="28" style="ellipse;whiteSpace=wrap;html=1;aspect=fixed;gradientColor=none;opacity=10;textOpacity=10;" parent="1" vertex="1">
          <mxGeometry x="570" y="130" width="30" height="30" as="geometry" />
        </mxCell>
        <mxCell id="wBqZYNnKL2V66_kFx7pn-76" value="29" style="ellipse;whiteSpace=wrap;html=1;aspect=fixed;gradientColor=none;opacity=10;textOpacity=10;" parent="1" vertex="1">
          <mxGeometry x="590" y="100" width="30" height="30" as="geometry" />
        </mxCell>
        <mxCell id="wBqZYNnKL2V66_kFx7pn-77" value="&lt;font style=&quot;font-size: 14px;&quot;&gt;A B C D E F G H I J K L M N O P Q R S T U V W X Y Z&lt;/font&gt;" style="rounded=0;whiteSpace=wrap;html=1;" parent="1" vertex="1">
          <mxGeometry x="70" y="380" width="370" height="40" as="geometry" />
        </mxCell>
        <mxCell id="wBqZYNnKL2V66_kFx7pn-80" value="3" style="rounded=0;whiteSpace=wrap;html=1;" parent="1" vertex="1">
          <mxGeometry x="20" y="530" width="20" height="30" as="geometry" />
        </mxCell>
        <mxCell id="wBqZYNnKL2V66_kFx7pn-92" value="AEIMQUY" style="rounded=0;whiteSpace=wrap;html=1;" parent="1" vertex="1">
          <mxGeometry x="460" y="530" width="120" height="30" as="geometry" />
        </mxCell>
        <mxCell id="wBqZYNnKL2V66_kFx7pn-93" value="BDFHJLNPRTVXZ" style="rounded=0;whiteSpace=wrap;html=1;" parent="1" vertex="1">
          <mxGeometry x="460" y="570" width="120" height="30" as="geometry" />
        </mxCell>
        <mxCell id="wBqZYNnKL2V66_kFx7pn-95" value="step = (3-1)*2 = 4" style="rounded=0;whiteSpace=wrap;html=1;" parent="1" vertex="1">
          <mxGeometry x="65" y="324" width="120" height="40" as="geometry" />
        </mxCell>
        <mxCell id="wBqZYNnKL2V66_kFx7pn-96" value="1" style="ellipse;whiteSpace=wrap;html=1;aspect=fixed;" parent="1" vertex="1">
          <mxGeometry x="590" y="410" width="20" height="20" as="geometry" />
        </mxCell>
        <mxCell id="wBqZYNnKL2V66_kFx7pn-97" value="2" style="ellipse;whiteSpace=wrap;html=1;aspect=fixed;" parent="1" vertex="1">
          <mxGeometry x="600" y="430" width="20" height="20" as="geometry" />
        </mxCell>
        <mxCell id="wBqZYNnKL2V66_kFx7pn-98" value="3" style="ellipse;whiteSpace=wrap;html=1;aspect=fixed;" parent="1" vertex="1">
          <mxGeometry x="610" y="450" width="20" height="20" as="geometry" />
        </mxCell>
        <mxCell id="wBqZYNnKL2V66_kFx7pn-99" value="4" style="ellipse;whiteSpace=wrap;html=1;aspect=fixed;" parent="1" vertex="1">
          <mxGeometry x="620" y="470" width="20" height="20" as="geometry" />
        </mxCell>
        <mxCell id="wBqZYNnKL2V66_kFx7pn-100" value="5" style="ellipse;whiteSpace=wrap;html=1;aspect=fixed;direction=south;" parent="1" vertex="1">
          <mxGeometry x="630" y="490" width="20" height="20" as="geometry" />
        </mxCell>
        <mxCell id="wBqZYNnKL2V66_kFx7pn-101" value="7" style="ellipse;whiteSpace=wrap;html=1;aspect=fixed;" parent="1" vertex="1">
          <mxGeometry x="650" y="450" width="20" height="20" as="geometry" />
        </mxCell>
        <mxCell id="wBqZYNnKL2V66_kFx7pn-102" value="6" style="ellipse;whiteSpace=wrap;html=1;aspect=fixed;" parent="1" vertex="1">
          <mxGeometry x="640" y="470" width="20" height="20" as="geometry" />
        </mxCell>
        <mxCell id="wBqZYNnKL2V66_kFx7pn-103" value="8" style="ellipse;whiteSpace=wrap;html=1;aspect=fixed;" parent="1" vertex="1">
          <mxGeometry x="660" y="430" width="20" height="20" as="geometry" />
        </mxCell>
        <mxCell id="wBqZYNnKL2V66_kFx7pn-104" value="9" style="ellipse;whiteSpace=wrap;html=1;aspect=fixed;" parent="1" vertex="1">
          <mxGeometry x="670" y="410" width="20" height="20" as="geometry" />
        </mxCell>
        <mxCell id="wBqZYNnKL2V66_kFx7pn-110" value="CGKOSW" style="rounded=0;whiteSpace=wrap;html=1;" parent="1" vertex="1">
          <mxGeometry x="460" y="610" width="120" height="30" as="geometry" />
        </mxCell>
        <mxCell id="wBqZYNnKL2V66_kFx7pn-113" value="A" style="rounded=0;whiteSpace=wrap;html=1;fillColor=#6a00ff;fontColor=#ffffff;strokeColor=#3700CC;" parent="1" vertex="1">
          <mxGeometry x="60" y="530" width="15" height="30" as="geometry" />
        </mxCell>
        <mxCell id="wBqZYNnKL2V66_kFx7pn-142" value="B" style="rounded=0;whiteSpace=wrap;html=1;" parent="1" vertex="1">
          <mxGeometry x="75" y="530" width="15" height="30" as="geometry" />
        </mxCell>
        <mxCell id="wBqZYNnKL2V66_kFx7pn-144" value="C" style="rounded=0;whiteSpace=wrap;html=1;" parent="1" vertex="1">
          <mxGeometry x="90" y="530" width="15" height="30" as="geometry" />
        </mxCell>
        <mxCell id="wBqZYNnKL2V66_kFx7pn-145" value="D" style="rounded=0;whiteSpace=wrap;html=1;" parent="1" vertex="1">
          <mxGeometry x="105" y="530" width="15" height="30" as="geometry" />
        </mxCell>
        <mxCell id="wBqZYNnKL2V66_kFx7pn-146" value="E" style="rounded=0;whiteSpace=wrap;html=1;fillColor=#6a00ff;fontColor=#ffffff;strokeColor=#3700CC;" parent="1" vertex="1">
          <mxGeometry x="120" y="530" width="15" height="30" as="geometry" />
        </mxCell>
        <mxCell id="wBqZYNnKL2V66_kFx7pn-147" value="F" style="rounded=0;whiteSpace=wrap;html=1;" parent="1" vertex="1">
          <mxGeometry x="135" y="530" width="15" height="30" as="geometry" />
        </mxCell>
        <mxCell id="wBqZYNnKL2V66_kFx7pn-148" value="G" style="rounded=0;whiteSpace=wrap;html=1;" parent="1" vertex="1">
          <mxGeometry x="150" y="530" width="15" height="30" as="geometry" />
        </mxCell>
        <mxCell id="wBqZYNnKL2V66_kFx7pn-149" value="H" style="rounded=0;whiteSpace=wrap;html=1;" parent="1" vertex="1">
          <mxGeometry x="165" y="530" width="15" height="30" as="geometry" />
        </mxCell>
        <mxCell id="wBqZYNnKL2V66_kFx7pn-150" value="I" style="rounded=0;whiteSpace=wrap;html=1;fillColor=#6a00ff;fontColor=#ffffff;strokeColor=#3700CC;" parent="1" vertex="1">
          <mxGeometry x="180" y="530" width="15" height="30" as="geometry" />
        </mxCell>
        <mxCell id="wBqZYNnKL2V66_kFx7pn-151" value="J" style="rounded=0;whiteSpace=wrap;html=1;" parent="1" vertex="1">
          <mxGeometry x="195" y="530" width="15" height="30" as="geometry" />
        </mxCell>
        <mxCell id="wBqZYNnKL2V66_kFx7pn-152" value="K" style="rounded=0;whiteSpace=wrap;html=1;" parent="1" vertex="1">
          <mxGeometry x="210" y="530" width="15" height="30" as="geometry" />
        </mxCell>
        <mxCell id="wBqZYNnKL2V66_kFx7pn-153" value="L" style="rounded=0;whiteSpace=wrap;html=1;" parent="1" vertex="1">
          <mxGeometry x="225" y="530" width="15" height="30" as="geometry" />
        </mxCell>
        <mxCell id="wBqZYNnKL2V66_kFx7pn-154" value="M" style="rounded=0;whiteSpace=wrap;html=1;fillColor=#6a00ff;fontColor=#ffffff;strokeColor=#3700CC;" parent="1" vertex="1">
          <mxGeometry x="240" y="530" width="15" height="30" as="geometry" />
        </mxCell>
        <mxCell id="wBqZYNnKL2V66_kFx7pn-155" value="N" style="rounded=0;whiteSpace=wrap;html=1;" parent="1" vertex="1">
          <mxGeometry x="255" y="530" width="15" height="30" as="geometry" />
        </mxCell>
        <mxCell id="wBqZYNnKL2V66_kFx7pn-156" value="O" style="rounded=0;whiteSpace=wrap;html=1;" parent="1" vertex="1">
          <mxGeometry x="270" y="530" width="15" height="30" as="geometry" />
        </mxCell>
        <mxCell id="wBqZYNnKL2V66_kFx7pn-157" value="P" style="rounded=0;whiteSpace=wrap;html=1;" parent="1" vertex="1">
          <mxGeometry x="285" y="530" width="15" height="30" as="geometry" />
        </mxCell>
        <mxCell id="wBqZYNnKL2V66_kFx7pn-158" value="Q" style="rounded=0;whiteSpace=wrap;html=1;fillColor=#6a00ff;fontColor=#ffffff;strokeColor=#3700CC;" parent="1" vertex="1">
          <mxGeometry x="300" y="530" width="15" height="30" as="geometry" />
        </mxCell>
        <mxCell id="wBqZYNnKL2V66_kFx7pn-159" value="R" style="rounded=0;whiteSpace=wrap;html=1;" parent="1" vertex="1">
          <mxGeometry x="315" y="530" width="15" height="30" as="geometry" />
        </mxCell>
        <mxCell id="wBqZYNnKL2V66_kFx7pn-160" value="S" style="rounded=0;whiteSpace=wrap;html=1;" parent="1" vertex="1">
          <mxGeometry x="330" y="530" width="15" height="30" as="geometry" />
        </mxCell>
        <mxCell id="wBqZYNnKL2V66_kFx7pn-161" value="T" style="rounded=0;whiteSpace=wrap;html=1;" parent="1" vertex="1">
          <mxGeometry x="345" y="530" width="15" height="30" as="geometry" />
        </mxCell>
        <mxCell id="wBqZYNnKL2V66_kFx7pn-162" value="U" style="rounded=0;whiteSpace=wrap;html=1;fillColor=#6a00ff;fontColor=#ffffff;strokeColor=#3700CC;" parent="1" vertex="1">
          <mxGeometry x="360" y="530" width="15" height="30" as="geometry" />
        </mxCell>
        <mxCell id="wBqZYNnKL2V66_kFx7pn-163" value="V" style="rounded=0;whiteSpace=wrap;html=1;" parent="1" vertex="1">
          <mxGeometry x="375" y="530" width="15" height="30" as="geometry" />
        </mxCell>
        <mxCell id="wBqZYNnKL2V66_kFx7pn-164" value="W" style="rounded=0;whiteSpace=wrap;html=1;" parent="1" vertex="1">
          <mxGeometry x="390" y="530" width="15" height="30" as="geometry" />
        </mxCell>
        <mxCell id="wBqZYNnKL2V66_kFx7pn-165" value="X" style="rounded=0;whiteSpace=wrap;html=1;" parent="1" vertex="1">
          <mxGeometry x="405" y="530" width="15" height="30" as="geometry" />
        </mxCell>
        <mxCell id="wBqZYNnKL2V66_kFx7pn-166" value="Y" style="rounded=0;whiteSpace=wrap;html=1;fillColor=#6a00ff;fontColor=#ffffff;strokeColor=#3700CC;" parent="1" vertex="1">
          <mxGeometry x="420" y="530" width="15" height="30" as="geometry" />
        </mxCell>
        <mxCell id="wBqZYNnKL2V66_kFx7pn-167" value="Z" style="rounded=0;whiteSpace=wrap;html=1;" parent="1" vertex="1">
          <mxGeometry x="435" y="530" width="15" height="30" as="geometry" />
        </mxCell>
        <mxCell id="wBqZYNnKL2V66_kFx7pn-173" value="B" style="rounded=0;whiteSpace=wrap;html=1;fillColor=#6a00ff;fontColor=#ffffff;strokeColor=#3700CC;" parent="1" vertex="1">
          <mxGeometry x="75" y="570" width="15" height="30" as="geometry" />
        </mxCell>
        <mxCell id="wBqZYNnKL2V66_kFx7pn-174" value="C" style="rounded=0;whiteSpace=wrap;html=1;" parent="1" vertex="1">
          <mxGeometry x="90" y="570" width="15" height="30" as="geometry" />
        </mxCell>
        <mxCell id="wBqZYNnKL2V66_kFx7pn-175" value="D" style="rounded=0;whiteSpace=wrap;html=1;fillColor=#6a00ff;fontColor=#ffffff;strokeColor=#3700CC;" parent="1" vertex="1">
          <mxGeometry x="105" y="570" width="15" height="30" as="geometry" />
        </mxCell>
        <mxCell id="wBqZYNnKL2V66_kFx7pn-176" value="F" style="rounded=0;whiteSpace=wrap;html=1;fillColor=#6a00ff;fontColor=#ffffff;strokeColor=#3700CC;" parent="1" vertex="1">
          <mxGeometry x="135" y="570" width="15" height="30" as="geometry" />
        </mxCell>
        <mxCell id="wBqZYNnKL2V66_kFx7pn-177" value="G" style="rounded=0;whiteSpace=wrap;html=1;" parent="1" vertex="1">
          <mxGeometry x="150" y="570" width="15" height="30" as="geometry" />
        </mxCell>
        <mxCell id="wBqZYNnKL2V66_kFx7pn-178" value="H" style="rounded=0;whiteSpace=wrap;html=1;fillColor=#6a00ff;fontColor=#ffffff;strokeColor=#3700CC;" parent="1" vertex="1">
          <mxGeometry x="165" y="570" width="15" height="30" as="geometry" />
        </mxCell>
        <mxCell id="wBqZYNnKL2V66_kFx7pn-179" value="J" style="rounded=0;whiteSpace=wrap;html=1;fillColor=#6a00ff;fontColor=#ffffff;strokeColor=#3700CC;" parent="1" vertex="1">
          <mxGeometry x="195" y="570" width="15" height="30" as="geometry" />
        </mxCell>
        <mxCell id="wBqZYNnKL2V66_kFx7pn-180" value="K" style="rounded=0;whiteSpace=wrap;html=1;" parent="1" vertex="1">
          <mxGeometry x="210" y="570" width="15" height="30" as="geometry" />
        </mxCell>
        <mxCell id="wBqZYNnKL2V66_kFx7pn-181" value="L" style="rounded=0;whiteSpace=wrap;html=1;fillColor=#6a00ff;fontColor=#ffffff;strokeColor=#3700CC;" parent="1" vertex="1">
          <mxGeometry x="225" y="570" width="15" height="30" as="geometry" />
        </mxCell>
        <mxCell id="wBqZYNnKL2V66_kFx7pn-182" value="N" style="rounded=0;whiteSpace=wrap;html=1;fillColor=#6a00ff;fontColor=#ffffff;strokeColor=#3700CC;" parent="1" vertex="1">
          <mxGeometry x="255" y="570" width="15" height="30" as="geometry" />
        </mxCell>
        <mxCell id="wBqZYNnKL2V66_kFx7pn-183" value="O" style="rounded=0;whiteSpace=wrap;html=1;" parent="1" vertex="1">
          <mxGeometry x="270" y="570" width="15" height="30" as="geometry" />
        </mxCell>
        <mxCell id="wBqZYNnKL2V66_kFx7pn-184" value="P" style="rounded=0;whiteSpace=wrap;html=1;fillColor=#6a00ff;fontColor=#ffffff;strokeColor=#3700CC;" parent="1" vertex="1">
          <mxGeometry x="285" y="570" width="15" height="30" as="geometry" />
        </mxCell>
        <mxCell id="wBqZYNnKL2V66_kFx7pn-185" value="R" style="rounded=0;whiteSpace=wrap;html=1;fillColor=#6a00ff;fontColor=#ffffff;strokeColor=#3700CC;" parent="1" vertex="1">
          <mxGeometry x="315" y="570" width="15" height="30" as="geometry" />
        </mxCell>
        <mxCell id="wBqZYNnKL2V66_kFx7pn-186" value="S" style="rounded=0;whiteSpace=wrap;html=1;" parent="1" vertex="1">
          <mxGeometry x="330" y="570" width="15" height="30" as="geometry" />
        </mxCell>
        <mxCell id="wBqZYNnKL2V66_kFx7pn-187" value="T" style="rounded=0;whiteSpace=wrap;html=1;fillColor=#6a00ff;fontColor=#ffffff;strokeColor=#3700CC;" parent="1" vertex="1">
          <mxGeometry x="345" y="570" width="15" height="30" as="geometry" />
        </mxCell>
        <mxCell id="wBqZYNnKL2V66_kFx7pn-188" value="V" style="rounded=0;whiteSpace=wrap;html=1;fillColor=#6a00ff;fontColor=#ffffff;strokeColor=#3700CC;" parent="1" vertex="1">
          <mxGeometry x="375" y="570" width="15" height="30" as="geometry" />
        </mxCell>
        <mxCell id="wBqZYNnKL2V66_kFx7pn-189" value="W" style="rounded=0;whiteSpace=wrap;html=1;" parent="1" vertex="1">
          <mxGeometry x="390" y="570" width="15" height="30" as="geometry" />
        </mxCell>
        <mxCell id="wBqZYNnKL2V66_kFx7pn-190" value="X" style="rounded=0;whiteSpace=wrap;html=1;fillColor=#6a00ff;fontColor=#ffffff;strokeColor=#3700CC;" parent="1" vertex="1">
          <mxGeometry x="405" y="570" width="15" height="30" as="geometry" />
        </mxCell>
        <mxCell id="wBqZYNnKL2V66_kFx7pn-191" value="Z" style="rounded=0;whiteSpace=wrap;html=1;fillColor=#6a00ff;fontColor=#ffffff;strokeColor=#3700CC;" parent="1" vertex="1">
          <mxGeometry x="435" y="570" width="15" height="30" as="geometry" />
        </mxCell>
        <mxCell id="wBqZYNnKL2V66_kFx7pn-192" value="C" style="rounded=0;whiteSpace=wrap;html=1;" parent="1" vertex="1">
          <mxGeometry x="90" y="610" width="15" height="30" as="geometry" />
        </mxCell>
        <mxCell id="wBqZYNnKL2V66_kFx7pn-193" value="G" style="rounded=0;whiteSpace=wrap;html=1;" parent="1" vertex="1">
          <mxGeometry x="150" y="610" width="15" height="30" as="geometry" />
        </mxCell>
        <mxCell id="wBqZYNnKL2V66_kFx7pn-194" value="K" style="rounded=0;whiteSpace=wrap;html=1;" parent="1" vertex="1">
          <mxGeometry x="210" y="610" width="15" height="30" as="geometry" />
        </mxCell>
        <mxCell id="wBqZYNnKL2V66_kFx7pn-195" value="S" style="rounded=0;whiteSpace=wrap;html=1;" parent="1" vertex="1">
          <mxGeometry x="330" y="610" width="15" height="30" as="geometry" />
        </mxCell>
        <mxCell id="wBqZYNnKL2V66_kFx7pn-196" value="W" style="rounded=0;whiteSpace=wrap;html=1;" parent="1" vertex="1">
          <mxGeometry x="390" y="610" width="15" height="30" as="geometry" />
        </mxCell>
        <mxCell id="wBqZYNnKL2V66_kFx7pn-197" value="O" style="rounded=0;whiteSpace=wrap;html=1;" parent="1" vertex="1">
          <mxGeometry x="270" y="610" width="15" height="30" as="geometry" />
        </mxCell>
        <mxCell id="wBqZYNnKL2V66_kFx7pn-198" value="A" style="rounded=0;whiteSpace=wrap;html=1;fillColor=#6a00ff;fontColor=#ffffff;strokeColor=#3700CC;" parent="1" vertex="1">
          <mxGeometry x="60" y="680" width="15" height="30" as="geometry" />
        </mxCell>
        <mxCell id="wBqZYNnKL2V66_kFx7pn-199" value="E" style="rounded=0;whiteSpace=wrap;html=1;" parent="1" vertex="1">
          <mxGeometry x="75" y="680" width="15" height="30" as="geometry" />
        </mxCell>
        <mxCell id="wBqZYNnKL2V66_kFx7pn-200" value="I" style="rounded=0;whiteSpace=wrap;html=1;" parent="1" vertex="1">
          <mxGeometry x="90" y="680" width="15" height="30" as="geometry" />
        </mxCell>
        <mxCell id="wBqZYNnKL2V66_kFx7pn-201" value="M" style="rounded=0;whiteSpace=wrap;html=1;" parent="1" vertex="1">
          <mxGeometry x="105" y="680" width="15" height="30" as="geometry" />
        </mxCell>
        <mxCell id="wBqZYNnKL2V66_kFx7pn-202" value="Q" style="rounded=0;whiteSpace=wrap;html=1;" parent="1" vertex="1">
          <mxGeometry x="120" y="680" width="15" height="30" as="geometry" />
        </mxCell>
        <mxCell id="wBqZYNnKL2V66_kFx7pn-203" value="U" style="rounded=0;whiteSpace=wrap;html=1;" parent="1" vertex="1">
          <mxGeometry x="135" y="680" width="15" height="30" as="geometry" />
        </mxCell>
        <mxCell id="wBqZYNnKL2V66_kFx7pn-204" value="Y" style="rounded=0;whiteSpace=wrap;html=1;" parent="1" vertex="1">
          <mxGeometry x="150" y="680" width="15" height="30" as="geometry" />
        </mxCell>
        <mxCell id="wBqZYNnKL2V66_kFx7pn-205" value="B" style="rounded=0;whiteSpace=wrap;html=1;fillColor=#6a00ff;fontColor=#ffffff;strokeColor=#3700CC;" parent="1" vertex="1">
          <mxGeometry x="180" y="680" width="15" height="30" as="geometry" />
        </mxCell>
        <mxCell id="wBqZYNnKL2V66_kFx7pn-206" value="D" style="rounded=0;whiteSpace=wrap;html=1;" parent="1" vertex="1">
          <mxGeometry x="195" y="680" width="15" height="30" as="geometry" />
        </mxCell>
        <mxCell id="wBqZYNnKL2V66_kFx7pn-207" value="F" style="rounded=0;whiteSpace=wrap;html=1;" parent="1" vertex="1">
          <mxGeometry x="210" y="680" width="15" height="30" as="geometry" />
        </mxCell>
        <mxCell id="wBqZYNnKL2V66_kFx7pn-208" value="H" style="rounded=0;whiteSpace=wrap;html=1;" parent="1" vertex="1">
          <mxGeometry x="225" y="680" width="15" height="30" as="geometry" />
        </mxCell>
        <mxCell id="wBqZYNnKL2V66_kFx7pn-209" value="J" style="rounded=0;whiteSpace=wrap;html=1;" parent="1" vertex="1">
          <mxGeometry x="240" y="680" width="15" height="30" as="geometry" />
        </mxCell>
        <mxCell id="wBqZYNnKL2V66_kFx7pn-210" value="L" style="rounded=0;whiteSpace=wrap;html=1;" parent="1" vertex="1">
          <mxGeometry x="255" y="680" width="15" height="30" as="geometry" />
        </mxCell>
        <mxCell id="wBqZYNnKL2V66_kFx7pn-211" value="N" style="rounded=0;whiteSpace=wrap;html=1;" parent="1" vertex="1">
          <mxGeometry x="270" y="680" width="15" height="30" as="geometry" />
        </mxCell>
        <mxCell id="wBqZYNnKL2V66_kFx7pn-212" value="P" style="rounded=0;whiteSpace=wrap;html=1;" parent="1" vertex="1">
          <mxGeometry x="285" y="680" width="15" height="30" as="geometry" />
        </mxCell>
        <mxCell id="wBqZYNnKL2V66_kFx7pn-213" value="R" style="rounded=0;whiteSpace=wrap;html=1;" parent="1" vertex="1">
          <mxGeometry x="300" y="680" width="15" height="30" as="geometry" />
        </mxCell>
        <mxCell id="wBqZYNnKL2V66_kFx7pn-214" value="T" style="rounded=0;whiteSpace=wrap;html=1;" parent="1" vertex="1">
          <mxGeometry x="315" y="680" width="15" height="30" as="geometry" />
        </mxCell>
        <mxCell id="wBqZYNnKL2V66_kFx7pn-215" value="V" style="rounded=0;whiteSpace=wrap;html=1;" parent="1" vertex="1">
          <mxGeometry x="330" y="680" width="15" height="30" as="geometry" />
        </mxCell>
        <mxCell id="wBqZYNnKL2V66_kFx7pn-216" value="X" style="rounded=0;whiteSpace=wrap;html=1;" parent="1" vertex="1">
          <mxGeometry x="345" y="680" width="15" height="30" as="geometry" />
        </mxCell>
        <mxCell id="wBqZYNnKL2V66_kFx7pn-217" value="Z" style="rounded=0;whiteSpace=wrap;html=1;" parent="1" vertex="1">
          <mxGeometry x="360" y="680" width="15" height="30" as="geometry" />
        </mxCell>
        <mxCell id="wBqZYNnKL2V66_kFx7pn-218" value="C" style="rounded=0;whiteSpace=wrap;html=1;fillColor=#6a00ff;fontColor=#ffffff;strokeColor=#3700CC;" parent="1" vertex="1">
          <mxGeometry x="390" y="680" width="15" height="30" as="geometry" />
        </mxCell>
        <mxCell id="wBqZYNnKL2V66_kFx7pn-219" value="G" style="rounded=0;whiteSpace=wrap;html=1;" parent="1" vertex="1">
          <mxGeometry x="405" y="680" width="15" height="30" as="geometry" />
        </mxCell>
        <mxCell id="wBqZYNnKL2V66_kFx7pn-220" value="K" style="rounded=0;whiteSpace=wrap;html=1;" parent="1" vertex="1">
          <mxGeometry x="420" y="680" width="15" height="30" as="geometry" />
        </mxCell>
        <mxCell id="wBqZYNnKL2V66_kFx7pn-221" value="O" style="rounded=0;whiteSpace=wrap;html=1;" parent="1" vertex="1">
          <mxGeometry x="435" y="680" width="15" height="30" as="geometry" />
        </mxCell>
        <mxCell id="wBqZYNnKL2V66_kFx7pn-222" value="S" style="rounded=0;whiteSpace=wrap;html=1;" parent="1" vertex="1">
          <mxGeometry x="450" y="680" width="15" height="30" as="geometry" />
        </mxCell>
        <mxCell id="wBqZYNnKL2V66_kFx7pn-223" value="W" style="rounded=0;whiteSpace=wrap;html=1;" parent="1" vertex="1">
          <mxGeometry x="465" y="680" width="15" height="30" as="geometry" />
        </mxCell>
        <mxCell id="wBqZYNnKL2V66_kFx7pn-224" value="E" style="rounded=0;whiteSpace=wrap;html=1;fillColor=#6a00ff;fontColor=#ffffff;strokeColor=#3700CC;" parent="1" vertex="1">
          <mxGeometry x="75" y="720" width="15" height="30" as="geometry" />
        </mxCell>
        <mxCell id="wBqZYNnKL2V66_kFx7pn-225" value="I" style="rounded=0;whiteSpace=wrap;html=1;" parent="1" vertex="1">
          <mxGeometry x="90" y="720" width="15" height="30" as="geometry" />
        </mxCell>
        <mxCell id="wBqZYNnKL2V66_kFx7pn-226" value="M" style="rounded=0;whiteSpace=wrap;html=1;" parent="1" vertex="1">
          <mxGeometry x="105" y="720" width="15" height="30" as="geometry" />
        </mxCell>
        <mxCell id="wBqZYNnKL2V66_kFx7pn-227" value="Q" style="rounded=0;whiteSpace=wrap;html=1;" parent="1" vertex="1">
          <mxGeometry x="120" y="720" width="15" height="30" as="geometry" />
        </mxCell>
        <mxCell id="wBqZYNnKL2V66_kFx7pn-228" value="U" style="rounded=0;whiteSpace=wrap;html=1;" parent="1" vertex="1">
          <mxGeometry x="135" y="720" width="15" height="30" as="geometry" />
        </mxCell>
        <mxCell id="wBqZYNnKL2V66_kFx7pn-229" value="Y" style="rounded=0;whiteSpace=wrap;html=1;" parent="1" vertex="1">
          <mxGeometry x="150" y="720" width="15" height="30" as="geometry" />
        </mxCell>
        <mxCell id="wBqZYNnKL2V66_kFx7pn-230" value="D" style="rounded=0;whiteSpace=wrap;html=1;fillColor=#6a00ff;fontColor=#ffffff;strokeColor=#3700CC;" parent="1" vertex="1">
          <mxGeometry x="195" y="720" width="15" height="30" as="geometry" />
        </mxCell>
        <mxCell id="wBqZYNnKL2V66_kFx7pn-231" value="F" style="rounded=0;whiteSpace=wrap;html=1;" parent="1" vertex="1">
          <mxGeometry x="210" y="720" width="15" height="30" as="geometry" />
        </mxCell>
        <mxCell id="wBqZYNnKL2V66_kFx7pn-232" value="H" style="rounded=0;whiteSpace=wrap;html=1;" parent="1" vertex="1">
          <mxGeometry x="225" y="720" width="15" height="30" as="geometry" />
        </mxCell>
        <mxCell id="wBqZYNnKL2V66_kFx7pn-233" value="J" style="rounded=0;whiteSpace=wrap;html=1;" parent="1" vertex="1">
          <mxGeometry x="240" y="720" width="15" height="30" as="geometry" />
        </mxCell>
        <mxCell id="wBqZYNnKL2V66_kFx7pn-234" value="L" style="rounded=0;whiteSpace=wrap;html=1;" parent="1" vertex="1">
          <mxGeometry x="255" y="720" width="15" height="30" as="geometry" />
        </mxCell>
        <mxCell id="wBqZYNnKL2V66_kFx7pn-235" value="N" style="rounded=0;whiteSpace=wrap;html=1;" parent="1" vertex="1">
          <mxGeometry x="270" y="720" width="15" height="30" as="geometry" />
        </mxCell>
        <mxCell id="wBqZYNnKL2V66_kFx7pn-236" value="P" style="rounded=0;whiteSpace=wrap;html=1;" parent="1" vertex="1">
          <mxGeometry x="285" y="720" width="15" height="30" as="geometry" />
        </mxCell>
        <mxCell id="wBqZYNnKL2V66_kFx7pn-237" value="R" style="rounded=0;whiteSpace=wrap;html=1;" parent="1" vertex="1">
          <mxGeometry x="300" y="720" width="15" height="30" as="geometry" />
        </mxCell>
        <mxCell id="wBqZYNnKL2V66_kFx7pn-238" value="T" style="rounded=0;whiteSpace=wrap;html=1;" parent="1" vertex="1">
          <mxGeometry x="315" y="720" width="15" height="30" as="geometry" />
        </mxCell>
        <mxCell id="wBqZYNnKL2V66_kFx7pn-239" value="V" style="rounded=0;whiteSpace=wrap;html=1;" parent="1" vertex="1">
          <mxGeometry x="330" y="720" width="15" height="30" as="geometry" />
        </mxCell>
        <mxCell id="wBqZYNnKL2V66_kFx7pn-240" value="X" style="rounded=0;whiteSpace=wrap;html=1;" parent="1" vertex="1">
          <mxGeometry x="345" y="720" width="15" height="30" as="geometry" />
        </mxCell>
        <mxCell id="wBqZYNnKL2V66_kFx7pn-241" value="Z" style="rounded=0;whiteSpace=wrap;html=1;" parent="1" vertex="1">
          <mxGeometry x="360" y="720" width="15" height="30" as="geometry" />
        </mxCell>
        <mxCell id="wBqZYNnKL2V66_kFx7pn-242" value="G" style="rounded=0;whiteSpace=wrap;html=1;" parent="1" vertex="1">
          <mxGeometry x="405" y="720" width="15" height="30" as="geometry" />
        </mxCell>
        <mxCell id="wBqZYNnKL2V66_kFx7pn-243" value="K" style="rounded=0;whiteSpace=wrap;html=1;" parent="1" vertex="1">
          <mxGeometry x="420" y="720" width="15" height="30" as="geometry" />
        </mxCell>
        <mxCell id="wBqZYNnKL2V66_kFx7pn-244" value="O" style="rounded=0;whiteSpace=wrap;html=1;" parent="1" vertex="1">
          <mxGeometry x="435" y="720" width="15" height="30" as="geometry" />
        </mxCell>
        <mxCell id="wBqZYNnKL2V66_kFx7pn-245" value="S" style="rounded=0;whiteSpace=wrap;html=1;" parent="1" vertex="1">
          <mxGeometry x="450" y="720" width="15" height="30" as="geometry" />
        </mxCell>
        <mxCell id="wBqZYNnKL2V66_kFx7pn-246" value="W" style="rounded=0;whiteSpace=wrap;html=1;" parent="1" vertex="1">
          <mxGeometry x="465" y="720" width="15" height="30" as="geometry" />
        </mxCell>
        <mxCell id="wBqZYNnKL2V66_kFx7pn-268" value="I" style="rounded=0;whiteSpace=wrap;html=1;" parent="1" vertex="1">
          <mxGeometry x="90" y="760" width="15" height="30" as="geometry" />
        </mxCell>
        <mxCell id="wBqZYNnKL2V66_kFx7pn-269" value="M" style="rounded=0;whiteSpace=wrap;html=1;" parent="1" vertex="1">
          <mxGeometry x="105" y="760" width="15" height="30" as="geometry" />
        </mxCell>
        <mxCell id="wBqZYNnKL2V66_kFx7pn-270" value="Q" style="rounded=0;whiteSpace=wrap;html=1;" parent="1" vertex="1">
          <mxGeometry x="120" y="760" width="15" height="30" as="geometry" />
        </mxCell>
        <mxCell id="wBqZYNnKL2V66_kFx7pn-271" value="U" style="rounded=0;whiteSpace=wrap;html=1;" parent="1" vertex="1">
          <mxGeometry x="135" y="760" width="15" height="30" as="geometry" />
        </mxCell>
        <mxCell id="wBqZYNnKL2V66_kFx7pn-272" value="Y" style="rounded=0;whiteSpace=wrap;html=1;" parent="1" vertex="1">
          <mxGeometry x="150" y="760" width="15" height="30" as="geometry" />
        </mxCell>
        <mxCell id="wBqZYNnKL2V66_kFx7pn-274" value="F" style="rounded=0;whiteSpace=wrap;html=1;fillColor=#6a00ff;fontColor=#ffffff;strokeColor=#3700CC;" parent="1" vertex="1">
          <mxGeometry x="210" y="760" width="15" height="30" as="geometry" />
        </mxCell>
        <mxCell id="wBqZYNnKL2V66_kFx7pn-275" value="H" style="rounded=0;whiteSpace=wrap;html=1;" parent="1" vertex="1">
          <mxGeometry x="225" y="760" width="15" height="30" as="geometry" />
        </mxCell>
        <mxCell id="wBqZYNnKL2V66_kFx7pn-276" value="J" style="rounded=0;whiteSpace=wrap;html=1;" parent="1" vertex="1">
          <mxGeometry x="240" y="760" width="15" height="30" as="geometry" />
        </mxCell>
        <mxCell id="wBqZYNnKL2V66_kFx7pn-277" value="L" style="rounded=0;whiteSpace=wrap;html=1;" parent="1" vertex="1">
          <mxGeometry x="255" y="760" width="15" height="30" as="geometry" />
        </mxCell>
        <mxCell id="wBqZYNnKL2V66_kFx7pn-278" value="N" style="rounded=0;whiteSpace=wrap;html=1;" parent="1" vertex="1">
          <mxGeometry x="270" y="760" width="15" height="30" as="geometry" />
        </mxCell>
        <mxCell id="wBqZYNnKL2V66_kFx7pn-279" value="P" style="rounded=0;whiteSpace=wrap;html=1;" parent="1" vertex="1">
          <mxGeometry x="285" y="760" width="15" height="30" as="geometry" />
        </mxCell>
        <mxCell id="wBqZYNnKL2V66_kFx7pn-280" value="R" style="rounded=0;whiteSpace=wrap;html=1;" parent="1" vertex="1">
          <mxGeometry x="300" y="760" width="15" height="30" as="geometry" />
        </mxCell>
        <mxCell id="wBqZYNnKL2V66_kFx7pn-281" value="T" style="rounded=0;whiteSpace=wrap;html=1;" parent="1" vertex="1">
          <mxGeometry x="315" y="760" width="15" height="30" as="geometry" />
        </mxCell>
        <mxCell id="wBqZYNnKL2V66_kFx7pn-282" value="V" style="rounded=0;whiteSpace=wrap;html=1;" parent="1" vertex="1">
          <mxGeometry x="330" y="760" width="15" height="30" as="geometry" />
        </mxCell>
        <mxCell id="wBqZYNnKL2V66_kFx7pn-283" value="X" style="rounded=0;whiteSpace=wrap;html=1;" parent="1" vertex="1">
          <mxGeometry x="345" y="760" width="15" height="30" as="geometry" />
        </mxCell>
        <mxCell id="wBqZYNnKL2V66_kFx7pn-284" value="Z" style="rounded=0;whiteSpace=wrap;html=1;" parent="1" vertex="1">
          <mxGeometry x="360" y="760" width="15" height="30" as="geometry" />
        </mxCell>
        <mxCell id="wBqZYNnKL2V66_kFx7pn-285" value="G" style="rounded=0;whiteSpace=wrap;html=1;fillColor=#6a00ff;fontColor=#ffffff;strokeColor=#3700CC;" parent="1" vertex="1">
          <mxGeometry x="405" y="760" width="15" height="30" as="geometry" />
        </mxCell>
        <mxCell id="wBqZYNnKL2V66_kFx7pn-286" value="K" style="rounded=0;whiteSpace=wrap;html=1;" parent="1" vertex="1">
          <mxGeometry x="420" y="760" width="15" height="30" as="geometry" />
        </mxCell>
        <mxCell id="wBqZYNnKL2V66_kFx7pn-287" value="O" style="rounded=0;whiteSpace=wrap;html=1;" parent="1" vertex="1">
          <mxGeometry x="435" y="760" width="15" height="30" as="geometry" />
        </mxCell>
        <mxCell id="wBqZYNnKL2V66_kFx7pn-288" value="S" style="rounded=0;whiteSpace=wrap;html=1;" parent="1" vertex="1">
          <mxGeometry x="450" y="760" width="15" height="30" as="geometry" />
        </mxCell>
        <mxCell id="wBqZYNnKL2V66_kFx7pn-289" value="W" style="rounded=0;whiteSpace=wrap;html=1;" parent="1" vertex="1">
          <mxGeometry x="465" y="760" width="15" height="30" as="geometry" />
        </mxCell>
        <mxCell id="wBqZYNnKL2V66_kFx7pn-290" value="A" style="rounded=0;whiteSpace=wrap;html=1;fillColor=#6a00ff;fontColor=#ffffff;strokeColor=#3700CC;" parent="1" vertex="1">
          <mxGeometry x="62.5" y="900" width="15" height="30" as="geometry" />
        </mxCell>
        <mxCell id="wBqZYNnKL2V66_kFx7pn-291" value="B" style="rounded=0;whiteSpace=wrap;html=1;fillColor=#6a00ff;fontColor=#ffffff;strokeColor=#3700CC;" parent="1" vertex="1">
          <mxGeometry x="77.5" y="920" width="15" height="30" as="geometry" />
        </mxCell>
        <mxCell id="wBqZYNnKL2V66_kFx7pn-292" value="C" style="rounded=0;whiteSpace=wrap;html=1;fillColor=#6a00ff;fontColor=#ffffff;strokeColor=#3700CC;" parent="1" vertex="1">
          <mxGeometry x="92.5" y="940" width="15" height="30" as="geometry" />
        </mxCell>
        <mxCell id="wBqZYNnKL2V66_kFx7pn-293" value="D" style="rounded=0;whiteSpace=wrap;html=1;fillColor=#6a00ff;fontColor=#ffffff;strokeColor=#3700CC;" parent="1" vertex="1">
          <mxGeometry x="77.5" y="960" width="15" height="30" as="geometry" />
        </mxCell>
        <mxCell id="wBqZYNnKL2V66_kFx7pn-294" value="E" style="rounded=0;whiteSpace=wrap;html=1;fillColor=#6a00ff;fontColor=#ffffff;strokeColor=#3700CC;" parent="1" vertex="1">
          <mxGeometry x="62.5" y="980" width="15" height="30" as="geometry" />
        </mxCell>
        <mxCell id="wBqZYNnKL2V66_kFx7pn-295" value="F" style="rounded=0;whiteSpace=wrap;html=1;fillColor=#6a00ff;fontColor=#ffffff;strokeColor=#3700CC;" parent="1" vertex="1">
          <mxGeometry x="77.5" y="1000" width="15" height="30" as="geometry" />
        </mxCell>
        <mxCell id="wBqZYNnKL2V66_kFx7pn-296" value="G" style="rounded=0;whiteSpace=wrap;html=1;fillColor=#6a00ff;fontColor=#ffffff;strokeColor=#3700CC;" parent="1" vertex="1">
          <mxGeometry x="92.5" y="1020" width="15" height="30" as="geometry" />
        </mxCell>
        <mxCell id="wBqZYNnKL2V66_kFx7pn-298" value="I" style="rounded=0;whiteSpace=wrap;html=1;fillColor=#6a00ff;fontColor=#ffffff;strokeColor=#3700CC;" parent="1" vertex="1">
          <mxGeometry x="90" y="800" width="15" height="30" as="geometry" />
        </mxCell>
        <mxCell id="wBqZYNnKL2V66_kFx7pn-299" value="M" style="rounded=0;whiteSpace=wrap;html=1;" parent="1" vertex="1">
          <mxGeometry x="105" y="800" width="15" height="30" as="geometry" />
        </mxCell>
        <mxCell id="wBqZYNnKL2V66_kFx7pn-300" value="Q" style="rounded=0;whiteSpace=wrap;html=1;" parent="1" vertex="1">
          <mxGeometry x="120" y="800" width="15" height="30" as="geometry" />
        </mxCell>
        <mxCell id="wBqZYNnKL2V66_kFx7pn-301" value="U" style="rounded=0;whiteSpace=wrap;html=1;" parent="1" vertex="1">
          <mxGeometry x="135" y="800" width="15" height="30" as="geometry" />
        </mxCell>
        <mxCell id="wBqZYNnKL2V66_kFx7pn-302" value="Y" style="rounded=0;whiteSpace=wrap;html=1;" parent="1" vertex="1">
          <mxGeometry x="150" y="800" width="15" height="30" as="geometry" />
        </mxCell>
        <mxCell id="wBqZYNnKL2V66_kFx7pn-304" value="H" style="rounded=0;whiteSpace=wrap;html=1;fillColor=#6a00ff;fontColor=#ffffff;strokeColor=#3700CC;" parent="1" vertex="1">
          <mxGeometry x="225" y="800" width="15" height="30" as="geometry" />
        </mxCell>
        <mxCell id="wBqZYNnKL2V66_kFx7pn-305" value="J" style="rounded=0;whiteSpace=wrap;html=1;" parent="1" vertex="1">
          <mxGeometry x="240" y="800" width="15" height="30" as="geometry" />
        </mxCell>
        <mxCell id="wBqZYNnKL2V66_kFx7pn-306" value="L" style="rounded=0;whiteSpace=wrap;html=1;" parent="1" vertex="1">
          <mxGeometry x="255" y="800" width="15" height="30" as="geometry" />
        </mxCell>
        <mxCell id="wBqZYNnKL2V66_kFx7pn-307" value="N" style="rounded=0;whiteSpace=wrap;html=1;" parent="1" vertex="1">
          <mxGeometry x="270" y="800" width="15" height="30" as="geometry" />
        </mxCell>
        <mxCell id="wBqZYNnKL2V66_kFx7pn-308" value="P" style="rounded=0;whiteSpace=wrap;html=1;" parent="1" vertex="1">
          <mxGeometry x="285" y="800" width="15" height="30" as="geometry" />
        </mxCell>
        <mxCell id="wBqZYNnKL2V66_kFx7pn-309" value="R" style="rounded=0;whiteSpace=wrap;html=1;" parent="1" vertex="1">
          <mxGeometry x="300" y="800" width="15" height="30" as="geometry" />
        </mxCell>
        <mxCell id="wBqZYNnKL2V66_kFx7pn-310" value="T" style="rounded=0;whiteSpace=wrap;html=1;" parent="1" vertex="1">
          <mxGeometry x="315" y="800" width="15" height="30" as="geometry" />
        </mxCell>
        <mxCell id="wBqZYNnKL2V66_kFx7pn-311" value="V" style="rounded=0;whiteSpace=wrap;html=1;" parent="1" vertex="1">
          <mxGeometry x="330" y="800" width="15" height="30" as="geometry" />
        </mxCell>
        <mxCell id="wBqZYNnKL2V66_kFx7pn-312" value="X" style="rounded=0;whiteSpace=wrap;html=1;" parent="1" vertex="1">
          <mxGeometry x="345" y="800" width="15" height="30" as="geometry" />
        </mxCell>
        <mxCell id="wBqZYNnKL2V66_kFx7pn-313" value="Z" style="rounded=0;whiteSpace=wrap;html=1;" parent="1" vertex="1">
          <mxGeometry x="360" y="800" width="15" height="30" as="geometry" />
        </mxCell>
        <mxCell id="wBqZYNnKL2V66_kFx7pn-315" value="K" style="rounded=0;whiteSpace=wrap;html=1;" parent="1" vertex="1">
          <mxGeometry x="420" y="800" width="15" height="30" as="geometry" />
        </mxCell>
        <mxCell id="wBqZYNnKL2V66_kFx7pn-316" value="O" style="rounded=0;whiteSpace=wrap;html=1;" parent="1" vertex="1">
          <mxGeometry x="435" y="800" width="15" height="30" as="geometry" />
        </mxCell>
        <mxCell id="wBqZYNnKL2V66_kFx7pn-317" value="S" style="rounded=0;whiteSpace=wrap;html=1;" parent="1" vertex="1">
          <mxGeometry x="450" y="800" width="15" height="30" as="geometry" />
        </mxCell>
        <mxCell id="wBqZYNnKL2V66_kFx7pn-318" value="W" style="rounded=0;whiteSpace=wrap;html=1;" parent="1" vertex="1">
          <mxGeometry x="465" y="800" width="15" height="30" as="geometry" />
        </mxCell>
        <mxCell id="wBqZYNnKL2V66_kFx7pn-320" value="M" style="rounded=0;whiteSpace=wrap;html=1;" parent="1" vertex="1">
          <mxGeometry x="105" y="840" width="15" height="30" as="geometry" />
        </mxCell>
        <mxCell id="wBqZYNnKL2V66_kFx7pn-321" value="Q" style="rounded=0;whiteSpace=wrap;html=1;" parent="1" vertex="1">
          <mxGeometry x="120" y="840" width="15" height="30" as="geometry" />
        </mxCell>
        <mxCell id="wBqZYNnKL2V66_kFx7pn-322" value="U" style="rounded=0;whiteSpace=wrap;html=1;" parent="1" vertex="1">
          <mxGeometry x="135" y="840" width="15" height="30" as="geometry" />
        </mxCell>
        <mxCell id="wBqZYNnKL2V66_kFx7pn-323" value="Y" style="rounded=0;whiteSpace=wrap;html=1;" parent="1" vertex="1">
          <mxGeometry x="150" y="840" width="15" height="30" as="geometry" />
        </mxCell>
        <mxCell id="wBqZYNnKL2V66_kFx7pn-325" value="J" style="rounded=0;whiteSpace=wrap;html=1;fillColor=#6a00ff;fontColor=#ffffff;strokeColor=#3700CC;" parent="1" vertex="1">
          <mxGeometry x="240" y="840" width="15" height="30" as="geometry" />
        </mxCell>
        <mxCell id="wBqZYNnKL2V66_kFx7pn-326" value="L" style="rounded=0;whiteSpace=wrap;html=1;" parent="1" vertex="1">
          <mxGeometry x="255" y="840" width="15" height="30" as="geometry" />
        </mxCell>
        <mxCell id="wBqZYNnKL2V66_kFx7pn-327" value="N" style="rounded=0;whiteSpace=wrap;html=1;" parent="1" vertex="1">
          <mxGeometry x="270" y="840" width="15" height="30" as="geometry" />
        </mxCell>
        <mxCell id="wBqZYNnKL2V66_kFx7pn-328" value="P" style="rounded=0;whiteSpace=wrap;html=1;" parent="1" vertex="1">
          <mxGeometry x="285" y="840" width="15" height="30" as="geometry" />
        </mxCell>
        <mxCell id="wBqZYNnKL2V66_kFx7pn-329" value="R" style="rounded=0;whiteSpace=wrap;html=1;" parent="1" vertex="1">
          <mxGeometry x="300" y="840" width="15" height="30" as="geometry" />
        </mxCell>
        <mxCell id="wBqZYNnKL2V66_kFx7pn-330" value="T" style="rounded=0;whiteSpace=wrap;html=1;" parent="1" vertex="1">
          <mxGeometry x="315" y="840" width="15" height="30" as="geometry" />
        </mxCell>
        <mxCell id="wBqZYNnKL2V66_kFx7pn-331" value="V" style="rounded=0;whiteSpace=wrap;html=1;" parent="1" vertex="1">
          <mxGeometry x="330" y="840" width="15" height="30" as="geometry" />
        </mxCell>
        <mxCell id="wBqZYNnKL2V66_kFx7pn-332" value="X" style="rounded=0;whiteSpace=wrap;html=1;" parent="1" vertex="1">
          <mxGeometry x="345" y="840" width="15" height="30" as="geometry" />
        </mxCell>
        <mxCell id="wBqZYNnKL2V66_kFx7pn-333" value="Z" style="rounded=0;whiteSpace=wrap;html=1;" parent="1" vertex="1">
          <mxGeometry x="360" y="840" width="15" height="30" as="geometry" />
        </mxCell>
        <mxCell id="wBqZYNnKL2V66_kFx7pn-334" value="K" style="rounded=0;whiteSpace=wrap;html=1;fillColor=#6a00ff;fontColor=#ffffff;strokeColor=#3700CC;" parent="1" vertex="1">
          <mxGeometry x="420" y="840" width="15" height="30" as="geometry" />
        </mxCell>
        <mxCell id="wBqZYNnKL2V66_kFx7pn-335" value="O" style="rounded=0;whiteSpace=wrap;html=1;" parent="1" vertex="1">
          <mxGeometry x="435" y="840" width="15" height="30" as="geometry" />
        </mxCell>
        <mxCell id="wBqZYNnKL2V66_kFx7pn-336" value="S" style="rounded=0;whiteSpace=wrap;html=1;" parent="1" vertex="1">
          <mxGeometry x="450" y="840" width="15" height="30" as="geometry" />
        </mxCell>
        <mxCell id="wBqZYNnKL2V66_kFx7pn-337" value="W" style="rounded=0;whiteSpace=wrap;html=1;" parent="1" vertex="1">
          <mxGeometry x="465" y="840" width="15" height="30" as="geometry" />
        </mxCell>
      </root>
    </mxGraphModel>
  </diagram>
</mxfile>
